<?xml version="1.0" encoding="utf-8"?>
<!-- Svg Vector Icons : http://www.onlinewebfonts.com/icon -->
<!DOCTYPE svg PUBLIC "-//W3C//DTD SVG 1.1//EN" "http://www.w3.org/Graphics/SVG/1.1/DTD/svg11.dtd">
<svg version="1.1" xmlns="http://www.w3.org/2000/svg" xmlns:xlink="http://www.w3.org/1999/xlink" x="0px" y="0px" viewBox="0 0 1000 1000" enable-background="new 0 0 1000 1000" xml:space="preserve">
<metadata> Svg Vector Icons : http://www.onlinewebfonts.com/icon </metadata>
<g><path d="M737.5,152H56.3C30.7,152,10,172.7,10,198.3v2.5c0,25.5,20.7,46.3,46.3,46.3h681.2c25.5,0,46.3-20.7,46.3-46.3v-2.5C783.7,172.7,763,152,737.5,152z"/><path d="M737.5,452.6H56.3c-25.5,0-46.3,20.7-46.3,46.3v2.5c0,25.5,20.7,46.3,46.3,46.3h681.2c25.5,0,46.3-20.7,46.3-46.3v-2.5C783.7,473.3,763,452.6,737.5,452.6z"/><path d="M737.5,753.2H56.3c-25.5,0-46.3,20.7-46.3,46.3v2.5c0,25.5,20.7,46.3,46.3,46.3h681.2c25.5,0,46.3-20.7,46.3-46.3v-2.5C783.7,773.9,763,753.2,737.5,753.2z"/><path d="M890.3,199.3c0,26.5,21.5,48,48,48s48-21.5,48-48s-21.5-48-48-48S890.3,172.8,890.3,199.3z"/><path d="M942,452c-26.5,0-48,21.5-48,48c0,26.5,21.5,48,48,48s48-21.5,48-48C990,473.5,968.5,452,942,452z"/><path d="M935.6,752.8c-26.5,0-48,21.5-48,48c0,26.5,21.5,48,48,48s48-21.5,48-48C983.6,774.2,962.1,752.8,935.6,752.8z"/></g>
</svg>