<?xml version="1.0" encoding="utf-8"?>
<!-- Generator: Adobe Illustrator 16.0.0, SVG Export Plug-In . SVG Version: 6.00 Build 0)  -->
<!DOCTYPE svg PUBLIC "-//W3C//DTD SVG 1.0//EN" "http://www.w3.org/TR/2001/REC-SVG-20010904/DTD/svg10.dtd">
<svg version="1.0" id="Layer_1" xmlns="http://www.w3.org/2000/svg" xmlns:xlink="http://www.w3.org/1999/xlink" x="0px" y="0px"
	 width="100px" height="100px" viewBox="0 0 100 100" enable-background="new 0 0 100 100" xml:space="preserve">
<rect x="23.333" y="43.333" width="13.333" height="6.667"/>
<rect x="43.333" y="43.333" width="13.333" height="6.667"/>
<rect x="63.333" y="43.333" width="13.334" height="6.667"/>
<rect x="63.333" y="56.667" width="13.334" height="6.666"/>
<rect x="63.333" y="70" width="13.334" height="6.667"/>
<rect x="50" y="56.667" width="6.667" height="6.666"/>
<rect x="50" y="70" width="6.667" height="6.667"/>
<path d="M83.333,16.667h-6.666V10H70v6.667H30V10h-6.667v6.667h-6.667C13,16.667,10,19.668,10,23.333v60C10,86.999,13,90,16.667,90
	h66.667C86.999,90,90,86.999,90,83.333v-60C90,19.668,86.999,16.667,83.333,16.667z M83.333,23.333V30H16.667v-6.667H83.333z
	 M16.667,83.333V36.667h66.667v46.667H16.667z"/>
<polygon points="38.618,56.667 33.333,61.953 28.048,56.667 23.333,61.38 28.62,66.667 23.333,71.953 28.047,76.667 33.333,71.38 
	38.62,76.667 43.333,71.953 38.047,66.667 43.333,61.38 "/>
</svg>
